<?xml version="1.0" encoding="UTF-8" standalone="no"?>
<!DOCTYPE svg PUBLIC "-//W3C//DTD SVG 1.1//EN" "http://www.w3.org/Graphics/SVG/1.1/DTD/svg11.dtd">
<svg width="100%" height="100%" viewBox="0 0 427 288" version="1.1" xmlns="http://www.w3.org/2000/svg" xmlns:xlink="http://www.w3.org/1999/xlink" xml:space="preserve" xmlns:serif="http://www.serif.com/" style="fill-rule:evenodd;clip-rule:evenodd;stroke-linejoin:round;stroke-miterlimit:2;">
    <g transform="matrix(1,0,0,1,-260,-2395.101861)">
        <g transform="matrix(0.429976,0,0,0.71809,171.003448,1135.617411)">
            <rect x="206.98" y="1753.937" width="992.02" height="400.063" style="fill:rgb(254,164,0);"/>
        </g>
        <g transform="matrix(1.212821,0,0,1.212821,-1136.515857,1111.321457)">
            <g transform="matrix(-0,1.454047,-0.628667,-0,3213.218838,-797.028351)">
                <path d="M1276.118,3161.931L1291.253,3161.931L1291.253,3271.19L1313.472,3271.19L1313.472,3279.57L1276.118,3279.57L1276.118,3161.931Z" style="fill-rule:nonzero;"/>
            </g>
            <g transform="matrix(0,1.454047,0.628667,-0,-558.600552,-797.028351)">
                <path d="M1276.118,3161.931L1291.253,3161.931L1291.253,3271.19L1356.447,3271.19L1356.447,3279.57L1276.118,3279.57L1276.118,3161.931Z" style="fill-rule:nonzero;"/>
            </g>
            <g transform="matrix(-5.755189,0,0,1.162085,8975.63721,-2629.327653)">
                <rect x="1298.39" y="3271.19" width="7.274" height="8.38"/>
            </g>
            <g transform="matrix(-13.383236,0,0,0.628667,18805.85959,-997.981973)">
                <rect x="1298.39" y="3271.19" width="8.413" height="8.38"/>
            </g>
            <g transform="matrix(11.793333,0,-0,-1.162085,-14080.629651,5096.779208)">
                <rect x="1297.848" y="3271.19" width="7.773" height="8.38"/>
            </g>
            <g transform="matrix(-0,-1.454047,-0.628667,0,3213.218838,3150.914026)">
                <path d="M1276.118,3161.931L1291.253,3161.931L1291.253,3271.19L1313.472,3271.19L1313.472,3279.57L1276.118,3279.57L1276.118,3161.931Z" style="fill-rule:nonzero;"/>
            </g>
            <g transform="matrix(0,-1.454047,0.628667,0,-558.600552,3150.914026)">
                <path d="M1276.118,3161.931L1291.253,3161.931L1291.253,3271.19L1313.472,3271.19L1313.472,3279.57L1276.118,3279.57L1276.118,3161.931Z" style="fill-rule:nonzero;"/>
            </g>
            <g transform="matrix(-0,-1.454047,-0.300921,0,2362.41947,3150.914026)">
                <rect x="1276.118" y="3161.931" width="15.135" height="106.79" style="fill-rule:nonzero;"/>
            </g>
            <g transform="matrix(-0,-1.454047,-0.300921,0,2226.654868,2936.050807)">
                <rect x="1276.118" y="3161.931" width="15.135" height="106.79" style="fill-rule:nonzero;"/>
            </g>
            <g transform="matrix(1.726796,0,0,1.726796,-1145.216187,-1196.911035)">
                <g transform="matrix(1,0,-0,1,-396.591131,-1107.016865)">
                    <g transform="matrix(1.295011,0,0,0.559907,125.201786,678.412816)">
                        <path d="M1276.118,3161.931L1310.455,3161.931L1310.455,3170.311L1291.253,3170.311L1289.967,3176.229C1289.967,3176.229 1291.253,3196.932 1291.253,3222.536C1291.253,3248.436 1289.959,3266.666 1289.959,3266.666L1291.253,3271.19L1310.455,3271.19L1310.455,3279.57L1276.118,3279.57L1274.743,3273.263C1274.743,3273.263 1276.891,3272.259 1276.891,3223.953C1276.891,3175.647 1274.786,3169.393 1274.786,3169.393L1276.118,3161.931Z"/>
                    </g>
                    <g transform="matrix(-0,-5.515924,2.725806,-0,-5101.057302,7379.91102)">
                        <path d="M881.275,2539.914L894.739,2539.914L894.739,2541.283C893.885,2541.544 893.248,2542.669 892.829,2544.658L888.768,2563.833L887.149,2563.833L882.967,2545.001C882.677,2543.696 882.407,2542.775 882.157,2542.237C881.907,2541.699 881.613,2541.381 881.275,2541.283L881.275,2539.914ZM889.156,2541.284C888.324,2541.286 887.358,2541.562 887.125,2542.066C886.883,2542.588 886.762,2543.207 886.762,2543.925C886.762,2544.349 886.81,2544.789 886.907,2545.245L889.252,2555.909L891.379,2545.148C891.476,2544.593 891.524,2544.104 891.524,2543.68C891.524,2542.93 891.391,2542.351 891.125,2541.944C890.862,2541.54 889.625,2541.284 889.156,2541.284Z"/>
                    </g>
                </g>
            </g>
        </g>
        <g transform="matrix(0,-6.668572,-1.409401,0,5296.964424,11197.945058)">
            <rect x="1297.848" y="3271.19" width="22.201" height="8.38"/>
        </g>
        <g transform="matrix(0,-2.967111,-1.409401,0,5296.964424,6533.242839)">
            <rect x="1297.848" y="3271.19" width="22.201" height="8.38"/>
        </g>
        <g transform="matrix(-0,2.967111,1.409401,-0,-4350.419308,-1455.757923)">
            <rect x="1297.848" y="3271.19" width="22.201" height="8.38"/>
        </g>
        <g transform="matrix(-0,2.967111,1.409401,-0,-4350.419308,-1234.349212)">
            <rect x="1297.848" y="3271.19" width="22.201" height="8.38"/>
        </g>
        <g transform="matrix(10.19071,-0,-0,-1.409401,-12765.695112,7017.332193)">
            <rect x="1297.848" y="3271.19" width="22.201" height="8.38"/>
        </g>
    </g>
</svg>
