<?xml version="1.0" encoding="UTF-8" standalone="no"?>
<!DOCTYPE svg PUBLIC "-//W3C//DTD SVG 1.1//EN" "http://www.w3.org/Graphics/SVG/1.1/DTD/svg11.dtd">
<svg width="100%" height="100%" viewBox="0 0 427 288" version="1.1" xmlns="http://www.w3.org/2000/svg" xmlns:xlink="http://www.w3.org/1999/xlink" xml:space="preserve" xmlns:serif="http://www.serif.com/" style="fill-rule:evenodd;clip-rule:evenodd;stroke-linejoin:round;stroke-miterlimit:2;">
    <g transform="matrix(1,0,0,1,-298.50285,-916.666904)">
        <g transform="matrix(-0,1.763499,-0.762461,-0,2799.046308,-1333.766229)">
            <path d="M1276.118,3161.931L1291.253,3161.931L1291.253,3271.19L1313.472,3271.19L1313.472,3279.57L1276.118,3279.57L1276.118,3161.931Z" style="fill:rgb(254,164,0);fill-rule:nonzero;"/>
        </g>
        <g transform="matrix(0,1.763499,0.762461,-0,-1775.495493,-1333.766229)">
            <path d="M1276.118,3161.931L1291.253,3161.931L1291.253,3271.19L1356.447,3271.19L1356.447,3279.57L1276.118,3279.57L1276.118,3161.931Z" style="fill:white;fill-rule:nonzero;"/>
        </g>
        <g transform="matrix(-6.980015,0,0,1.409401,9787.828376,-3556.017319)">
            <rect x="1298.39" y="3271.19" width="7.274" height="8.38" style="fill:white;"/>
        </g>
        <g transform="matrix(-16.231469,0,0,0.762461,21710.128609,-1577.487004)">
            <rect x="1298.39" y="3271.19" width="8.413" height="8.38"/>
        </g>
        <g transform="matrix(14.303202,0,-0,-1.409401,-18175.296478,5814.367406)">
            <rect x="1297.848" y="3271.19" width="7.773" height="8.38" style="fill:rgb(254,164,0);"/>
        </g>
        <g transform="matrix(-0,-1.763499,-0.762461,0,2799.046308,3454.381231)">
            <path d="M1276.118,3161.931L1291.253,3161.931L1291.253,3271.19L1313.472,3271.19L1313.472,3279.57L1276.118,3279.57L1276.118,3161.931Z" style="fill:rgb(254,164,0);fill-rule:nonzero;"/>
        </g>
        <g transform="matrix(0,-1.763499,0.762461,0,-1775.495493,3454.381231)">
            <path d="M1276.118,3161.931L1291.253,3161.931L1291.253,3271.19L1313.472,3271.19L1313.472,3279.57L1276.118,3279.57L1276.118,3161.931Z" style="fill:white;fill-rule:nonzero;"/>
        </g>
        <g transform="matrix(-0,-1.763499,-0.364963,0,1767.178959,3454.381231)">
            <rect x="1276.118" y="3161.931" width="15.135" height="106.79" style="fill:white;fill-rule:nonzero;"/>
        </g>
        <g transform="matrix(-0,-1.763499,-0.364963,0,1602.520798,3193.790605)">
            <rect x="1276.118" y="3161.931" width="15.135" height="106.79" style="fill:rgb(253,163,0);fill-rule:nonzero;"/>
        </g>
        <g>
            <g transform="matrix(2.712133,0,-0,1.17261,-3055.324314,-2716.375204)">
                <path d="M1276.118,3161.931L1310.455,3161.931L1310.455,3170.311L1291.253,3170.311L1289.967,3176.229C1289.967,3176.229 1291.253,3196.932 1291.253,3222.536C1291.253,3248.436 1289.959,3266.666 1289.959,3266.666L1291.253,3271.19L1310.455,3271.19L1310.455,3279.57L1276.118,3279.57L1274.743,3273.263C1274.743,3273.263 1276.891,3272.259 1276.891,3223.953C1276.891,3175.647 1274.786,3169.393 1274.786,3169.393L1276.118,3161.931Z" style="fill:white;"/>
            </g>
            <g transform="matrix(0,-11.551965,5.70864,0,-14000.646934,11318.531724)">
                <path d="M881.275,2539.914L894.739,2539.914L894.739,2541.283C893.885,2541.544 893.248,2542.669 892.829,2544.658L888.768,2563.833L887.149,2563.833L882.967,2545.001C882.677,2543.696 882.407,2542.775 882.157,2542.237C881.907,2541.699 881.613,2541.381 881.275,2541.283L881.275,2539.914ZM889.156,2541.284C888.324,2541.286 887.358,2541.562 887.125,2542.066C886.883,2542.588 886.762,2543.207 886.762,2543.925C886.762,2544.349 886.81,2544.789 886.907,2545.245L889.252,2555.909L891.379,2545.148C891.476,2544.593 891.524,2544.104 891.524,2543.68C891.524,2542.93 891.391,2542.351 891.125,2541.944C890.862,2541.54 889.625,2541.284 889.156,2541.284Z" style="fill:white;"/>
            </g>
        </g>
        <g transform="matrix(0,-6.668572,-1.409401,0,5335.467274,9719.510101)">
            <rect x="1297.848" y="3271.19" width="22.201" height="8.38" style="fill:white;"/>
        </g>
        <g transform="matrix(0,-2.967111,-1.409401,0,5335.467274,5054.807882)">
            <rect x="1297.848" y="3271.19" width="22.201" height="8.38" style="fill:white;"/>
        </g>
        <g transform="matrix(-0,2.967111,1.409401,-0,-4311.916458,-2934.19288)">
            <rect x="1297.848" y="3271.19" width="22.201" height="8.38" style="fill:rgb(254,164,0);"/>
        </g>
        <g transform="matrix(-0,2.967111,1.409401,-0,-4311.916458,-2712.784169)">
            <rect x="1297.848" y="3271.19" width="22.201" height="8.38" style="fill:rgb(254,164,0);"/>
        </g>
        <g transform="matrix(10.19071,-0,-0,-1.409401,-12727.192263,5538.897235)">
            <rect x="1297.848" y="3271.19" width="22.201" height="8.38" style="fill:white;"/>
        </g>
    </g>
</svg>
