<?xml version="1.0" encoding="UTF-8" standalone="no"?><!DOCTYPE svg PUBLIC "-//W3C//DTD SVG 1.1//EN" "http://www.w3.org/Graphics/SVG/1.1/DTD/svg11.dtd"><svg width="100%" height="100%" viewBox="0 0 811 286" version="1.1" xmlns="http://www.w3.org/2000/svg" xmlns:xlink="http://www.w3.org/1999/xlink" xml:space="preserve" xmlns:serif="http://www.serif.com/" style="fill-rule:evenodd;clip-rule:evenodd;stroke-linejoin:round;stroke-miterlimit:2;"><path d="M204.46,52.474c-6.382,0 -11.996,-2.305 -16.841,-6.914c-4.846,-4.609 -7.268,-10.459 -7.268,-17.55c0,-8.273 2.659,-15.009 7.977,-20.209c5.318,-5.2 11.641,-7.8 18.969,-7.8c6.382,0 11.877,2.364 16.487,7.091c4.609,4.727 6.914,10.4 6.914,17.018c0,7.8 -2.6,14.478 -7.8,20.032c-5.2,5.555 -11.346,8.332 -18.437,8.332Z" style="fill-rule:nonzero;"/><path d="M4.609,275.518c6.855,-1.655 11.877,-5.377 15.068,-11.168c3.191,-5.791 4.786,-14.005 4.786,-24.641l0,-125.527c-0.945,-7.8 -3.191,-13.296 -6.736,-16.487c-3.546,-3.191 -8.746,-4.905 -15.6,-5.141l-2.127,-8.864c17.255,-8.036 34.746,-17.018 52.474,-26.946l7.8,3.9c1.655,9.691 2.836,17.137 3.546,22.337c9.927,-9.455 19.382,-16.191 28.364,-20.209c8.982,-4.018 17.846,-6.027 26.591,-6.027c10.4,0 20.387,3.309 29.96,9.927c9.573,6.618 17.373,16.014 23.4,28.187c6.027,12.173 9.041,26.178 9.041,42.014c0,18.437 -4.255,35.16 -12.764,50.169c-8.509,15.009 -19.737,26.769 -33.682,35.278c-13.946,8.509 -28.6,12.764 -43.964,12.764c-7.564,0 -15.718,-0.945 -24.464,-2.836l0,7.461c0,11.346 2.6,19.559 7.8,24.641c5.2,5.082 15.009,8.805 29.428,11.168l0,9.573l-98.92,0l0,-9.573Zm61.692,-76.953c6.146,5.436 12.173,9.573 18.082,12.409c5.909,2.836 11.937,4.255 18.082,4.255c10.873,0 19.737,-5.968 26.591,-17.905c6.855,-11.937 10.282,-27.005 10.282,-45.205c0,-12.764 -1.832,-24.287 -5.496,-34.569c-3.664,-10.282 -8.509,-18.378 -14.537,-24.287c-6.027,-5.909 -12.587,-8.864 -19.678,-8.864c-5.436,0 -10.814,1.536 -16.132,4.609c-5.318,3.073 -11.05,7.564 -17.196,13.473l0,96.083Z" style="fill-rule:nonzero;"/><path d="M276.55,230.12l-82.256,0l0,-9.573c7.564,-1.655 12.941,-5.141 16.132,-10.459c3.191,-5.318 4.786,-14.832 4.786,-28.541l0,-64.883c0,-8.746 -1.595,-15.128 -4.786,-19.146c-3.191,-4.018 -8.687,-6.264 -16.487,-6.736l-1.064,-8.509c16.782,-5.2 36.755,-13.709 59.919,-25.528l7.091,6.027c-0.945,4.727 -1.655,12.587 -2.127,23.578c-0.473,10.991 -0.709,21.096 -0.709,30.314l0,64.883c0,13.709 1.477,23.223 4.432,28.541c2.955,5.318 7.977,8.805 15.068,10.459l0,9.573Z" style="fill-rule:nonzero;"/><path d="M368.733,230.12l-82.256,0l0,-9.573c7.564,-1.655 12.941,-5.141 16.132,-10.459c3.191,-5.318 4.786,-14.832 4.786,-28.541l0,-64.883c0,-8.746 -1.595,-15.128 -4.786,-19.146c-3.191,-4.018 -8.687,-6.264 -16.487,-6.736l-1.064,-8.509c16.782,-5.2 36.755,-13.709 59.919,-25.528l7.091,6.027c-0.945,4.727 -1.655,12.587 -2.127,23.578c-0.473,10.991 -0.709,21.096 -0.709,30.314l0,64.883c0,13.709 1.477,23.223 4.432,28.541c2.955,5.318 7.977,8.805 15.068,10.459l0,9.573Z"/><path d="M362.538,79.772c5.387,-4.687 10.939,-8.936 16.654,-12.746c10.282,-6.855 20.15,-10.282 29.605,-10.282c15.128,0 27.005,4.55 35.632,13.65c8.627,9.1 12.941,21.332 12.941,36.696l0,85.092c0.709,9.455 2.541,16.191 5.496,20.209c2.955,4.018 7.505,6.736 13.65,8.155l0,9.573l-82.256,0l0,-9.573c7.564,-1.655 12.941,-5.141 16.132,-10.459c3.191,-5.318 4.786,-14.832 4.786,-28.541l0.355,0l0,-61.692c0,-21.746 -7.8,-32.619 -23.4,-32.619c-6.382,0 -13.177,2.245 -20.387,6.736c-3.497,2.178 -6.868,4.607 -10.114,7.285c0.118,-4.774 0.288,-9.743 0.51,-14.908c0.093,-2.166 0.232,-4.395 0.396,-6.577Z"/><path d="M557.355,234.729c-12.764,0 -24.7,-3.782 -35.81,-11.346c-11.109,-7.564 -19.973,-17.905 -26.591,-31.023c-6.618,-13.118 -9.927,-27.596 -9.927,-43.433c0,-16.546 3.605,-31.91 10.814,-46.092c7.209,-14.182 17.078,-25.41 29.605,-33.682c12.527,-8.273 26.591,-12.409 42.192,-12.409c12.055,0 23.046,2.482 32.973,7.446c9.927,4.964 18.2,11.109 24.819,18.437l-25.882,36.164c-7.091,-13.237 -13.828,-23.696 -20.209,-31.378c-6.382,-7.682 -13.591,-11.523 -21.628,-11.523c-9.218,0 -16.841,5.259 -22.869,15.778c-6.027,10.518 -9.041,24.05 -9.041,40.596c0,12.764 2.186,24.7 6.559,35.81c4.373,11.109 10.459,20.032 18.259,26.769c7.8,6.736 16.546,10.105 26.237,10.105c12.764,0 25.41,-5.909 37.937,-17.728l7.8,7.8c-8.509,12.055 -18.318,21.687 -29.428,28.896c-11.109,7.209 -23.046,10.814 -35.81,10.814Z" style="fill-rule:nonzero;"/><path d="M687.121,59.919l0,121.627c0,13.709 1.595,23.223 4.786,28.541c3.191,5.318 8.568,8.805 16.132,10.459l0,9.573l-82.256,0l0,-9.573c7.091,-1.655 12.114,-5.141 15.068,-10.459c2.955,-5.318 4.432,-14.832 4.432,-28.541l0,-121.627c0,-8.746 -1.595,-15.128 -4.786,-19.146c-3.191,-4.018 -8.687,-6.264 -16.487,-6.736l-1.064,-8.509c16.782,-5.2 36.755,-13.709 59.919,-25.528l7.091,6.027c-0.945,4.727 -1.655,12.587 -2.127,23.578c-0.473,10.991 -0.709,21.096 -0.709,30.314Z"/><path d="M700.352,76.316c4.642,-3.786 9.391,-7.237 14.246,-10.354c9.573,-6.146 18.85,-9.218 27.832,-9.218c15.128,0 27.005,4.55 35.632,13.65c8.627,9.1 12.941,21.332 12.941,36.696l0,85.092c0.709,9.455 2.541,16.191 5.496,20.209c2.955,4.018 7.505,6.736 13.65,8.155l0,9.573l-82.256,0l0,-9.573c7.564,-1.655 12.941,-5.141 16.132,-10.459c3.191,-5.318 4.786,-14.832 4.786,-28.541l0.355,0l0,-61.692c0,-21.746 -7.8,-32.619 -23.4,-32.619c-6.146,0 -12.527,2.009 -19.146,6.027c-2.475,1.503 -4.933,3.17 -7.375,5.004c0.111,-3.849 0.254,-7.822 0.43,-11.917c0.143,-3.329 0.395,-6.805 0.676,-10.033Z"/></svg>